<svg xmlns="http://www.w3.org/2000/svg" viewBox="0 0 400 400">
    <path fill="#fff" d="M186.4 1.5c-.3.2-7.3 1-13.7 1.5-1.6.2-2.9.4-2.9.6q-.2.4-2.3.4c-1.3 0-2.5.1-2.6.4q-.4.3-2 .4-1.7 0-2 .4-.3.3-1.3.4a198 198 0 0 0-156 170 270 270 0 0 0 .7 52c.2.2.5 1.4.6 2.6a198 198 0 0 0 156 161.5q.3.3 2 .4 1.6 0 2 .4c.1.2 1.3.4 2.6.4q2.1 0 2.3.3c0 .2 1.3.5 3 .6l8.2.9c6.3.8 29 1.2 31.3.6 1.3-.4 7.1-1 13.3-1.5a8 8 0 0 0 2.8-.6c.2-.2 1.4-.3 2.6-.3s2.4-.2 2.5-.4q.4-.4 2-.4t2-.4 1.2-.4c.5 0 3.7-.7 7-1.6 78.6-20.3 133.6-80 148-160.7 2.8-16.2 2.8-45 0-61.1C379.3 87 324 27 245 6.9a59 59 0 0 0-7.6-1.7q-.3-.4-2-.4t-2-.4T231 4c-1.2 0-2.4-.2-2.6-.4q-.7-.3-2.8-.5a125 125 0 0 1-13.1-1.5 228 228 0 0 0-26.1-.1m71 39.9c2.6 3 2.3 12.8-.5 15.4-2.1 2-11.6 5-27.3 8.7-19 4.4-26.4 7.3-26.4 10.3 0 2.9.6 3.3 36.3 23.8 49.5 28.5 47.2 27 48.5 31.2 1.4 4.2 1 17.2-.7 20.3-1.7 3.3.7 1.8-47 30.5-33 19.8-32.4 18.4-13.7 29.8L252 227l24.5 15c11.5 7 12 7.7 12.3 19 .2 8.6-.3 13.4-1.7 15.8-1.7 2.9.1 1.8-60.2 37-11.8 7-14 9-12.6 11.5 1.3 2.4 3.4 3.2 22.6 8.4 22.4 6 22 5.8 22 15.9 0 12.1 1.1 12-34.3 2.4l-61.9-17c-55.9-15.2-55.2-15-57.3-17.1-3.8-3.9-3.4-16.2.7-18.1 2.4-1.2 2.9-1.1 19.1 3.3 38.2 10.5 38.1 10.5 40.5 6.6 1.2-2 1.2-221.1 0-223.2-2.2-4.2-1.5-4.3-40.5 6-20.5 5.5-22.3 5.1-22.2-4.9 0-9.3.4-9.5 24.4-15.6L179 58.7c61.5-16.2 71.4-18.6 74.5-18.5 2.6 0 3 .2 3.9 1.2M193.6 99c-2.6 1.4-2.5.4-2.5 41.3 0 40.2-.1 38.9 2.2 40.9q2 1.8 6.1-.4c4.3-2.1 59-35.3 61.4-37.2q4.7-3.7.6-7.8c-2.2-2-1.2-1.4-29.7-17.7l-22.2-12.9c-11.5-6.7-13.5-7.5-16-6.2m1.1 122.3c-1.2.3-2.5 1.7-3 3.3-.8 2-.8 74.4 0 76.9 1.5 4.9 4.4 4.5 15.3-1.8 56.7-33.2 54-31.6 55.2-34 2-3.7 1-4.6-19-16.8L210.6 229c-11.6-7.1-13.8-8.2-16-7.7"/>
</svg>
