<svg xmlns="http://www.w3.org/2000/svg" width="400" height="396.632">
  <g fill-rule="evenodd">
    <path fill="#fcfcfc" d="M186.357 1.473c-.266.267-7.281 1.072-13.639 1.565-1.582.123-2.877.382-2.877.577 0 .194-1.061.353-2.357.353-1.297 0-2.468.179-2.603.397-.135.218-1.028.397-1.984.397-.957 0-1.849.178-1.984.397-.135.218-.712.397-1.281.397-1.152 0-6.265 1.277-14.469 3.614C75.66 28.973 22.561 85.655 6.732 156.944c-1.496 6.737-1.635 7.473-1.841 9.723-.109 1.2-.362 2.352-.561 2.559-.199.208-.362 1.645-.362 3.195 0 1.549-.161 2.987-.358 3.194-1.287 1.356-1.287 44.239 0 45.595.197.208.358 1.645.358 3.195 0 1.549.163 2.987.362 3.194.199.208.452 1.359.561 2.56.206 2.249.345 2.985 1.841 9.722 15.908 71.647 70.681 129.676 139.895 148.212 9.801 2.625 12.005 3.164 12.973 3.17.587.004 1.178.185 1.313.404.135.218 1.027.396 1.984.396.956 0 1.849.179 1.984.397.135.219 1.306.397 2.603.397 1.296 0 2.357.159 2.357.354 0 .194 1.295.454 2.877.576 1.583.123 5.288.523 8.234.889 6.33.785 29.141 1.23 31.35.611 1.259-.354 7.111-1.02 13.293-1.513 1.31-.105 2.551-.354 2.758-.553.208-.2 1.402-.364 2.655-.364s2.389-.178 2.524-.397c.135-.218 1.027-.397 1.984-.397.956 0 1.849-.178 1.984-.396.135-.219.677-.397 1.206-.397.528 0 3.687-.703 7.02-1.563 78.565-20.261 133.61-80.068 147.941-160.739 2.866-16.137 2.866-44.974 0-61.111C379.305 87.011 323.995 27.099 245.122 6.954c-3.011-.769-5.902-1.398-6.425-1.398-.524 0-1.062-.179-1.197-.397-.135-.219-1.028-.397-1.984-.397-.957 0-1.849-.179-1.984-.397-.135-.218-1.271-.397-2.524-.397-1.253 0-2.447-.163-2.655-.363-.207-.2-1.448-.449-2.758-.554-6.376-.509-12.025-1.148-13.123-1.486-1.405-.432-25.689-.517-26.115-.092m71.009 39.907c2.655 3.086 2.334 12.77-.511 15.438-2.069 1.938-11.577 4.946-27.292 8.633-18.959 4.449-26.388 7.352-26.388 10.311 0 2.912.632 3.327 36.309 23.845 49.526 28.482 47.18 26.972 48.56 31.236 1.348 4.166.9 17.144-.699 20.247-1.725 3.348.696 1.779-47.067 30.483-32.999 19.83-32.363 18.444-13.691 29.841 4.256 2.598 15.685 9.599 25.397 15.557a17789.23 17789.23 0 0 0 24.562 15.046c11.413 6.965 11.894 7.709 12.227 18.896.259 8.735-.237 13.464-1.67 15.909-1.676 2.86.104 1.766-60.233 37.026-11.773 6.88-13.993 8.9-12.574 11.44 1.352 2.418 3.436 3.193 22.609 8.401 22.431 6.093 22.024 5.798 22.024 15.914 0 12.129 1.105 12.052-34.326 2.39l-61.905-16.879c-55.884-15.237-55.175-15.025-57.267-17.117-3.852-3.852-3.424-16.202.627-18.125 2.442-1.159 2.921-1.074 19.14 3.371 38.153 10.455 38.144 10.453 40.522 6.525 1.134-1.874 1.179-221.083.046-223.157-2.287-4.184-1.552-4.293-40.568 6.048-20.516 5.438-22.266 5.047-22.19-4.961.072-9.293.424-9.519 24.373-15.616a8029.497 8029.497 0 0 0 51.587-13.355c61.529-16.196 71.383-18.646 74.547-18.533 2.623.093 3.015.214 3.851 1.186m-63.779 57.638c-2.578 1.4-2.516.371-2.516 41.26 0 40.21-.071 38.915 2.269 40.885 1.419 1.193 3.274 1.097 6.065-.315 4.315-2.185 58.916-35.329 61.361-37.248 3.153-2.476 3.369-5.147.626-7.753-2.198-2.087-1.19-1.482-29.646-17.79a3733.03 3733.03 0 0 1-22.222-12.836c-11.55-6.755-13.514-7.519-15.937-6.203m1.056 122.308c-1.204.276-2.498 1.643-3.064 3.236-.739 2.082-.741 74.471-.002 76.905 1.484 4.888 4.454 4.536 15.315-1.816 56.701-33.157 54.05-31.532 55.258-33.869 1.942-3.755.864-4.709-19.094-16.892-11.697-7.14-17.53-10.715-32.451-19.885-11.635-7.151-13.775-8.181-15.962-7.679"/>
    <path fill="#1c1c1c" d="M0 198.413v198.412h400V0H0v198.413M212.472 1.565c1.098.338 6.747.977 13.123 1.486 1.31.105 2.551.354 2.758.554.208.2 1.402.363 2.655.363s2.389.179 2.524.397c.135.218 1.027.397 1.984.397.956 0 1.849.178 1.984.397.135.218.673.397 1.197.397.523 0 3.414.629 6.425 1.398 78.873 20.145 134.183 80.057 148.545 160.903 2.866 16.137 2.866 44.974 0 61.111-14.331 80.671-69.376 140.478-147.941 160.739-3.333.86-6.492 1.563-7.02 1.563-.529 0-1.071.178-1.206.397-.135.218-1.028.396-1.984.396-.957 0-1.849.179-1.984.397-.135.219-1.271.397-2.524.397-1.253 0-2.447.164-2.655.364-.207.199-1.448.448-2.758.553-6.182.493-12.034 1.159-13.293 1.513-2.209.619-25.02.174-31.35-.611-2.946-.366-6.651-.766-8.234-.889-1.582-.122-2.877-.382-2.877-.576 0-.195-1.061-.354-2.357-.354-1.297 0-2.468-.178-2.603-.397-.135-.218-1.028-.397-1.984-.397-.957 0-1.849-.178-1.984-.396-.135-.219-.726-.4-1.313-.404-.968-.006-3.172-.545-12.973-3.17C77.413 369.557 22.64 311.528 6.732 239.881c-1.496-6.737-1.635-7.473-1.841-9.722-.109-1.201-.362-2.352-.561-2.56-.199-.207-.362-1.645-.362-3.194 0-1.55-.161-2.987-.358-3.195-1.287-1.356-1.287-44.239 0-45.595.197-.207.358-1.645.358-3.194 0-1.55.163-2.987.362-3.195.199-.207.452-1.359.561-2.559.206-2.25.345-2.986 1.841-9.723C22.561 85.655 75.66 28.973 145.163 9.17c8.204-2.337 13.317-3.614 14.469-3.614.569 0 1.146-.179 1.281-.397.135-.219 1.027-.397 1.984-.397.956 0 1.849-.179 1.984-.397.135-.218 1.306-.397 2.603-.397 1.296 0 2.357-.159 2.357-.353 0-.195 1.295-.454 2.877-.577 6.358-.493 13.373-1.298 13.639-1.565.426-.425 24.71-.34 26.115.092m20.465 43.098c-23.38 6.054-39.249 10.189-53.969 14.064a8029.497 8029.497 0 0 1-51.587 13.355c-23.949 6.097-24.301 6.323-24.373 15.616-.076 10.008 1.674 10.399 22.19 4.961 39.016-10.341 38.281-10.232 40.568-6.048 1.133 2.074 1.088 221.283-.046 223.157-2.378 3.928-2.369 3.93-40.522-6.525-16.219-4.445-16.698-4.53-19.14-3.371-4.051 1.923-4.479 14.273-.627 18.125 2.092 2.092 1.383 1.88 57.267 17.117l61.905 16.879c35.431 9.662 34.326 9.739 34.326-2.39 0-10.116.407-9.821-22.024-15.914-28.866-7.841-29.255-8.609-10.035-19.841 60.337-35.26 58.557-34.166 60.233-37.026 1.433-2.445 1.929-7.174 1.67-15.909-.333-11.187-.814-11.931-12.227-18.896a17789.23 17789.23 0 0 1-24.562-15.046 18853.193 18853.193 0 0 0-25.397-15.557c-10.915-6.662-12.69-8.171-12.695-10.794-.007-3.078.892-3.727 26.386-19.047 47.763-28.704 45.342-27.135 47.067-30.483 1.599-3.103 2.047-16.081.699-20.247-1.38-4.264.966-2.754-48.56-31.236-35.677-20.518-36.309-20.933-36.309-23.845 0-2.959 7.429-5.862 26.388-10.311 27.126-6.364 29.568-7.753 29.562-16.813-.007-10.318-1.07-10.48-26.188-3.975M198.81 99.331c1.2.495 6.021 3.146 10.714 5.89a3733.03 3733.03 0 0 0 22.222 12.836c28.456 16.308 27.448 15.703 29.646 17.79 2.743 2.606 2.527 5.277-.626 7.753-2.445 1.919-57.046 35.063-61.361 37.248-3.907 1.977-6.603 1.221-7.811-2.19-.941-2.658-.748-74.7.207-77.176 1.199-3.109 3.198-3.722 7.009-2.151m.287 122.912c.921.395 6.1 3.438 11.508 6.762 14.921 9.17 20.754 12.745 32.451 19.885 19.958 12.183 21.036 13.137 19.094 16.892-1.208 2.337 1.443.712-55.258 33.869-10.861 6.352-13.831 6.704-15.315 1.816-.739-2.434-.737-74.823.002-76.905 1.199-3.378 3.438-4.068 7.518-2.319"/>
  </g>
</svg>
